<svg width="372" height="388" viewBox="0 0 372 388" fill="none" xmlns="http://www.w3.org/2000/svg">
<path d="M327.238 36.2966C326.555 36.639 325.531 36.639 324.849 36.9814C321.778 38.3511 318.366 39.0359 314.953 37.6663C312.906 36.9814 311.2 37.6663 310.176 39.0359C309.153 40.748 309.153 42.1177 310.859 43.8298C311.882 44.8571 312.906 46.2268 313.93 47.5965C317.001 45.5419 320.413 43.4874 323.143 41.0905C325.19 40.0632 326.214 38.3511 327.238 36.2966C327.579 36.2966 327.579 35.9542 327.92 35.9542C327.579 36.2966 327.579 36.2966 327.238 36.2966ZM53.2316 257.5C54.2552 256.815 55.2789 255.788 56.3026 255.103C60.7386 251.337 64.8333 247.57 69.9517 245.173C69.6105 245.858 69.9517 246.543 69.2693 246.885C65.857 250.309 63.4684 254.076 61.0798 258.185C57.3263 265.376 55.2789 273.252 53.2316 281.127C52.8903 282.155 53.2316 283.182 52.8903 284.209C52.8903 285.236 52.5491 285.921 52.2079 286.606C57.6675 277.018 63.4684 268.115 70.293 259.897C75.4114 253.734 81.2122 248.94 88.378 245.516C96.2263 241.749 104.075 241.407 111.923 244.488C114.311 245.516 115.335 244.831 117.041 243.461C122.501 238.667 128.643 234.558 135.467 232.504C144.681 229.764 153.211 230.791 161.401 235.243C164.472 236.613 164.813 237.297 165.837 239.352C165.154 239.352 164.813 239.352 164.131 239.01C156.965 236.613 150.14 234.901 142.292 234.901C134.444 235.243 127.96 237.982 122.16 243.119C112.946 250.994 107.828 261.609 103.733 272.567C100.662 280.785 99.6386 289.688 98.9561 298.591C98.2736 305.782 98.2736 312.972 99.6386 319.821C101.345 328.039 103.733 335.915 107.828 343.448C109.193 346.187 110.899 348.584 112.264 351.324C112.946 342.421 112.605 333.86 112.946 325.3C113.288 319.821 113.629 314.342 114.653 308.863C116.7 299.276 119.43 290.03 124.548 281.127C128.302 274.621 133.079 269.143 138.539 264.349C147.41 257.158 157.306 253.049 168.908 254.076C171.296 254.418 173.344 254.761 175.732 255.103C175.05 256.131 174.367 256.473 173.344 256.473C169.932 256.815 166.86 256.815 163.448 257.5C157.647 258.528 151.505 259.897 146.728 263.664C142.633 266.746 139.221 271.197 135.809 274.964C131.373 280.442 127.278 285.921 125.572 292.77C122.16 304.412 120.453 316.054 119.43 328.039C118.747 336.599 119.771 345.16 121.136 353.72C121.477 356.117 122.501 358.514 123.525 361.939C126.596 353.378 129.325 346.187 132.055 338.654C132.396 338.654 132.738 338.654 132.738 338.996C132.396 341.736 131.714 344.475 131.373 347.557C131.032 351.666 130.349 355.775 130.008 359.884C130.008 361.939 130.69 363.651 130.69 365.705C131.373 372.896 134.103 379.06 139.562 383.853C142.292 386.25 145.022 388.305 149.117 387.963C149.117 387.278 149.458 386.935 149.117 386.593C148.434 382.826 148.093 379.06 147.41 375.635C147.069 372.554 146.728 369.472 146.046 366.048C144.681 359.542 142.975 353.036 141.61 346.187C140.586 340.708 139.562 335.23 138.197 330.093C137.174 325.3 137.174 320.506 137.515 316.054C137.856 310.918 139.221 305.782 139.903 300.645C140.245 296.879 141.61 293.454 143.316 290.03C145.363 286.264 148.093 283.524 152.87 281.812C152.188 283.524 151.846 284.209 151.505 285.236C148.434 291.742 146.728 298.591 146.046 305.439C145.704 311.945 146.387 318.451 147.41 324.957C149.458 336.257 153.211 346.53 159.353 355.775C161.06 358.514 163.448 360.911 165.496 363.993C165.837 356.46 166.178 349.269 166.86 342.421C166.86 340.708 167.543 338.996 167.543 336.942C167.543 332.148 167.543 327.354 167.543 322.56C167.202 317.766 166.178 313.315 166.178 308.521C166.178 300.988 169.59 295.167 176.074 291.4C175.391 295.509 174.709 299.276 174.367 303.385C174.026 307.836 173.685 311.945 173.685 316.397C174.026 321.875 174.709 327.354 175.05 332.833C175.391 336.599 174.709 340.366 174.709 343.79C179.145 344.475 179.145 344.475 182.557 341.736C182.557 340.024 182.898 337.969 182.557 336.257C180.51 330.436 179.145 324.272 178.121 318.109C177.097 312.972 177.439 308.179 178.803 303.385C179.486 301.33 180.51 298.933 182.898 297.906C182.216 308.521 183.581 318.451 185.969 328.381C190.405 327.012 188.699 321.191 193.476 319.478C193.135 321.875 192.794 323.93 192.794 325.984C192.794 327.696 192.794 329.409 193.135 331.463C193.135 331.806 194.159 332.148 194.841 332.833C195.182 329.751 195.524 327.012 198.595 325.642C199.96 327.696 201.324 329.409 202.348 331.121C203.372 332.49 204.396 333.518 206.102 332.833C207.467 332.49 208.49 331.121 208.49 329.409C208.49 328.724 208.49 328.381 208.49 327.696C208.49 324.957 207.808 322.218 206.443 319.821C203.713 315.027 200.642 310.233 197.571 305.782C192.794 298.933 191.088 291.057 191.088 282.839C191.429 275.306 193.135 267.773 196.547 260.924C197.912 258.185 199.277 255.446 200.642 252.364C200.301 252.022 200.301 252.022 200.301 252.022C199.96 252.022 199.618 251.679 198.936 252.022C194.159 253.734 189.723 252.706 185.628 249.967C180.51 246.543 176.756 241.749 173.003 236.955C167.884 230.107 163.448 222.573 157.647 216.41C149.799 207.507 140.927 199.631 132.396 191.413C132.055 191.071 131.373 190.728 131.032 190.728C128.984 195.18 126.596 195.522 122.842 192.783C121.477 191.756 119.771 190.386 118.406 189.016C116.359 187.646 114.311 185.934 111.582 185.25C103.392 183.195 95.2026 181.825 86.6719 182.168C86.3307 182.168 85.9894 182.168 85.307 182.51C85.6482 183.195 86.3307 183.88 86.6719 184.907C86.3307 185.592 85.6482 186.619 84.9658 186.962C80.5298 189.016 76.0938 186.962 71.9991 186.277C71.3166 187.989 71.9991 190.043 69.9517 190.386C69.9517 191.071 68.2456 191.756 66.5394 191.756C63.4684 191.413 60.7386 191.756 58.0087 191.756C54.2552 191.756 51.1842 192.783 48.1131 194.495C44.0184 196.892 39.5824 198.604 35.1465 199.631C34.8053 199.631 34.8053 199.974 34.464 199.974C34.8053 200.658 35.1465 201.343 35.4877 202.028C34.1228 204.425 31.7342 205.452 29.6868 206.48C27.2982 207.507 24.5684 208.877 22.521 210.589C19.1088 213.67 15.6965 216.41 12.6254 220.176C9.55438 224.285 6.1421 228.395 4.09474 232.846C2.3886 235.928 0.682456 239.352 0.682456 243.461C0.341228 243.461 0.341228 243.461 0 243.803L0.341228 244.146C0.341228 243.803 0.341228 243.803 0.682456 243.461C2.72982 241.749 4.43596 240.037 6.48333 238.325C9.21315 235.585 11.943 232.846 15.014 230.449C26.957 222.231 39.5824 215.04 53.5728 210.589C65.857 206.48 77.8 203.74 90.7666 204.768C92.814 204.768 94.8614 204.425 96.9087 204.768C105.781 206.48 113.97 208.877 121.818 213.328C122.842 214.013 123.866 215.04 124.889 215.725C122.16 214.698 119.089 214.013 116.359 212.643C108.51 209.561 99.9798 208.192 91.4491 207.164C84.9658 206.48 78.8237 207.507 72.6815 208.877C65.1745 210.246 58.35 212.643 51.5254 216.41C49.4781 217.779 46.7482 218.464 45.3833 220.861C45.0421 220.861 44.3596 220.861 44.0184 220.861C44.0184 221.204 44.0184 221.204 44.3596 221.546C44.7009 221.204 45.0421 220.861 45.3833 220.861C46.0658 221.204 47.0895 221.546 47.7719 221.546C51.1842 221.546 52.2079 223.601 52.8903 225.998C48.4544 227.367 43.6772 228.395 39.5824 230.107C34.464 232.161 30.3693 236.27 27.2982 241.064C22.1798 249.282 19.1088 258.185 16.0377 267.088C15.6965 267.773 16.0377 268.458 15.6965 269.143C17.4026 267.088 18.7675 265.034 19.7912 262.979C22.8623 257.5 26.957 252.706 31.0517 247.57C36.8526 240.722 44.0184 234.901 51.5254 229.764C58.0088 225.313 64.8333 222.231 72.3403 219.834C79.8473 217.437 87.3543 216.067 94.8614 216.067C98.9561 216.067 102.71 217.095 106.463 217.779C113.97 218.807 120.795 221.546 126.937 225.313C127.96 225.998 128.643 226.682 129.667 227.367C127.96 227.367 126.596 226.34 124.889 225.998C120.795 224.285 116.7 222.916 112.605 221.204C105.781 218.807 98.2736 218.807 91.1079 218.464C82.2359 218.464 74.3877 221.204 67.5631 226.34C64.8333 228.395 62.4447 231.134 61.421 234.901C66.5394 232.846 70.9754 230.107 76.0938 229.422C69.6105 233.873 63.4684 238.325 59.0324 244.831C56.3026 248.94 53.5728 252.706 53.2316 257.5C53.2316 257.843 52.8903 258.185 52.5491 258.528C52.5491 258.528 52.8903 258.528 52.8903 258.87C52.8903 258.528 53.2316 257.843 53.2316 257.5ZM262.746 312.63C262.746 311.945 262.746 311.603 262.746 310.918C262.746 310.918 262.404 310.918 262.404 311.26C262.404 311.603 262.746 311.945 262.746 312.63C263.087 314 263.087 315.369 263.428 317.081C264.11 321.19 265.134 324.957 264.452 329.066C263.428 333.86 261.722 338.312 260.016 343.448C257.627 342.078 255.238 340.708 253.191 339.339C252.85 341.736 252.167 343.79 251.826 346.187C251.485 347.557 251.485 348.584 251.144 349.954C250.461 349.954 249.438 349.954 248.414 349.954C249.779 350.981 250.461 350.981 251.144 349.954C251.485 349.954 251.826 349.611 251.826 349.611C257.968 349.954 263.769 348.584 269.57 348.242C271.959 347.899 274.688 346.872 277.077 345.845C280.489 344.475 283.219 342.421 285.949 339.681C289.703 336.257 293.456 332.49 297.21 329.409C299.257 327.696 301.304 325.984 303.352 324.615C305.399 323.245 306.764 321.191 309.835 320.163C303.693 327.012 297.892 333.175 292.091 339.339C295.162 338.654 297.892 337.627 300.963 336.599C315.295 330.436 326.896 320.848 335.427 307.836C340.204 300.645 343.617 292.77 347.029 284.551C347.711 282.839 348.052 281.127 348.735 279.415C348.394 279.415 348.394 279.073 348.052 279.073C347.029 280.442 345.664 281.812 344.64 283.182C341.91 285.921 339.181 288.318 336.451 291.057C336.792 290.373 336.792 289.688 337.133 289.003C340.887 283.524 344.64 277.703 348.735 272.224C352.488 267.43 356.242 262.637 360.678 258.528C361.702 257.5 363.067 256.473 364.773 257.5C364.431 258.87 364.09 260.24 363.408 261.609C362.725 262.979 362.043 264.349 361.36 265.718C358.289 270.855 355.218 275.991 352.488 281.47C351.124 283.867 349.417 286.264 349.417 289.345C349.076 289.688 348.735 290.03 348.735 290.373C349.076 290.373 349.076 290.715 349.417 290.715C349.417 290.373 349.417 289.688 349.417 289.345C350.1 288.318 351.124 287.633 351.806 286.606C355.218 281.812 358.289 277.018 361.702 272.224C365.455 267.088 368.867 261.609 370.574 255.446C371.938 250.652 372.621 245.858 371.256 240.722C370.232 236.613 368.867 232.504 366.82 228.737C366.138 227.367 366.138 225.998 365.796 224.628C368.867 223.601 369.55 226.682 371.597 227.367C371.597 223.601 372.28 219.492 371.597 215.725C369.55 207.164 367.161 198.604 363.408 190.728C357.948 178.401 351.465 166.416 342.934 156.144C341.228 154.089 339.522 152.035 336.792 150.665C339.181 156.829 337.474 162.307 337.474 167.786C334.403 167.444 332.697 163.335 329.285 165.389C330.309 169.498 330.309 171.895 328.944 174.292C327.238 177.031 325.531 179.771 323.825 182.51C322.802 181.483 322.119 180.798 320.754 179.086C321.778 183.88 321.095 190.043 319.048 193.468C318.024 195.18 317.001 196.892 313.93 195.865C314.953 202.028 311.541 206.48 307.105 209.904C304.717 211.958 301.987 213.67 300.281 216.752C299.939 217.437 298.916 217.779 297.551 219.149C298.233 216.067 298.916 213.67 299.257 211.273C299.598 208.877 298.574 206.48 297.892 204.425C295.162 214.355 291.409 223.601 281.172 228.737C281.172 225.998 281.513 223.601 279.466 221.546C279.124 221.204 279.466 220.519 279.124 219.834C277.76 215.725 276.736 211.616 272.982 208.534C269.911 212.986 267.181 217.779 264.11 222.231C262.746 224.285 261.381 226.34 258.651 226.682C258.31 220.176 258.31 219.834 256.262 217.437C255.238 219.149 254.215 221.204 253.191 222.573C251.826 224.285 250.12 225.998 248.073 224.97C248.073 221.546 248.073 218.807 248.073 214.698C245.684 218.122 243.637 220.861 241.589 223.601C237.836 221.546 237.836 221.546 238.518 216.067C237.836 217.095 236.812 218.122 236.812 219.492C236.471 221.889 235.447 223.601 233.741 225.313C229.988 228.737 226.234 232.504 222.481 235.585C216.339 240.722 210.879 246.2 206.102 252.706C201.324 259.212 197.912 266.746 196.547 274.964C195.524 280.1 195.524 285.236 196.206 290.03C197.23 297.221 200.301 304.069 205.419 310.575C204.396 306.809 203.713 303.727 203.031 300.988C201.666 295.851 200.642 290.715 200.983 285.236C200.983 281.47 201.324 278.046 202.007 274.279C202.689 270.512 204.737 267.088 206.784 262.979C206.784 267.43 207.467 271.197 206.443 274.621C205.419 279.073 206.443 283.182 207.125 286.948C208.149 294.139 210.196 300.988 211.903 307.836C213.95 316.397 217.021 324.615 221.457 332.49C224.869 338.654 230.329 343.79 235.106 348.584C235.447 348.927 236.13 349.269 236.812 349.954C236.471 348.242 235.789 347.214 235.106 345.845C232.035 339.339 228.623 333.175 225.552 326.669C225.21 325.984 224.869 325.3 224.869 324.615C221.457 311.945 218.386 298.933 214.974 286.264C213.609 281.47 215.315 273.936 218.386 269.143C218.727 272.567 219.751 275.991 219.751 279.073C219.41 287.291 221.457 294.824 223.846 302.015C224.869 304.754 225.552 307.836 226.575 310.575C228.964 316.739 229.646 323.245 233.059 329.409C236.471 336.257 241.589 340.708 247.731 344.818C248.073 344.475 248.414 344.475 248.414 344.475C248.414 343.79 248.755 343.105 248.755 342.421C248.755 334.545 247.39 326.669 246.025 318.794C245.343 314.342 244.319 310.233 242.954 306.124C241.931 302.7 240.224 299.618 238.518 296.194C237.495 294.139 237.836 292.77 239.201 291.057C239.883 291.742 240.224 292.085 240.907 292.77C241.248 293.454 241.589 293.797 242.272 294.482C247.049 301.33 249.096 309.548 251.485 317.424C253.532 324.272 255.921 331.121 259.333 337.284C259.674 334.887 260.357 332.833 260.357 330.778C260.698 323.93 260.016 317.424 258.31 310.918C255.238 300.988 250.803 292.085 247.049 282.497C246.367 280.785 245.684 279.415 245.684 277.361C249.438 279.073 251.144 281.812 252.85 284.894C256.603 290.715 260.016 296.536 263.769 302.357C265.817 305.439 268.205 308.179 270.935 311.603C271.617 307.836 271.276 304.412 270.253 301.673C267.864 294.824 265.134 288.318 262.746 281.47C261.722 278.388 261.722 278.046 264.11 274.964C267.523 283.524 270.935 291.742 274.688 300.645C274.688 298.933 274.688 297.563 274.688 296.536C274.347 289.688 274.006 282.497 274.006 275.649C274.006 269.827 272.641 264.691 270.253 259.555C268.205 255.788 266.499 252.022 264.793 247.913C264.11 246.543 264.452 245.173 264.11 242.776C265.475 243.803 266.499 243.803 266.84 244.488C269.57 248.597 272.641 252.706 275.03 256.815C278.101 261.609 279.807 267.088 279.466 272.909C279.124 279.073 279.124 285.579 279.466 291.742C279.466 295.851 278.783 299.618 277.418 303.385C276.395 306.124 276.053 308.863 276.053 311.945C276.053 314 276.395 316.054 275.371 318.451C274.006 317.766 272.982 317.081 271.617 316.397C267.864 316.054 265.475 314 262.746 312.63ZM302.328 206.822C303.352 206.822 304.034 206.822 304.375 206.48C309.153 202.028 311.882 196.549 309.835 189.701C308.47 184.565 305.399 180.456 302.328 176.347C300.622 173.95 298.916 171.895 297.551 168.813C306.764 173.265 311.2 180.798 313.93 190.386C314.612 189.359 314.953 188.674 315.295 188.331C317.001 182.853 316.318 177.031 315.636 171.553C315.295 168.471 314.953 166.074 316.318 162.992C321.437 165.389 320.413 171.21 322.802 175.319C326.214 170.525 325.19 165.389 322.802 160.595C320.754 156.486 319.389 151.692 318.024 147.241C318.024 146.898 318.366 146.214 318.707 145.186C320.072 147.241 321.437 148.268 322.46 149.98C324.508 153.062 326.555 156.144 328.944 159.226C329.626 160.253 330.65 161.28 332.356 159.91C332.356 158.198 332.697 156.486 332.356 155.117C330.65 148.953 327.579 143.817 323.484 139.023C321.095 136.283 318.707 133.202 316.318 130.12C315.636 129.435 315.636 128.408 315.295 127.38C322.46 134.229 329.626 140.735 338.498 145.871C336.792 135.256 332.015 127.038 325.19 119.847C320.754 115.053 315.636 110.259 311.2 105.466C308.47 102.726 306.081 99.6444 304.034 96.5626C301.645 92.796 300.622 88.3445 300.281 83.5506C300.281 82.5234 299.598 81.4961 298.916 80.8113C295.503 77.7295 293.456 73.6204 292.432 68.8265C292.091 66.4296 290.726 64.3751 287.655 64.3751C286.973 64.3751 285.949 63.6902 285.267 63.3478C281.854 60.6084 281.172 56.8418 281.172 52.3903C281.172 47.5965 279.807 43.4874 277.76 39.3784C274.347 41.0905 270.935 45.8844 270.253 49.651C269.229 53.4176 268.546 57.5267 267.864 61.2933C265.817 71.2235 261.381 79.784 254.215 86.6324C249.096 91.4263 245.684 97.9323 242.954 104.781C238.177 116.765 236.471 129.435 235.788 142.105C235.106 156.486 235.447 170.868 236.471 185.25C236.471 185.592 236.471 185.934 236.471 186.619C237.495 192.783 238.518 198.946 236.13 205.452C235.447 207.507 234.424 209.219 234.082 211.273C233.059 215.725 232.376 215.725 233.4 218.464C236.471 214.698 236.812 208.877 242.272 207.507C244.66 209.561 242.954 212.301 243.978 214.698C245.002 212.643 246.025 210.589 246.025 207.849C246.367 204.768 246.708 204.768 250.461 205.11C251.144 207.849 251.826 210.931 252.85 214.013C253.191 213.328 254.215 212.986 254.215 212.301C254.556 210.589 254.897 208.534 255.239 206.48C255.239 203.055 255.239 199.631 255.239 196.207C259.333 199.631 259.674 204.083 260.016 208.534C260.357 211.274 260.698 213.67 262.404 216.067C264.11 214.013 266.499 211.958 267.864 209.561C269.911 206.137 271.276 202.371 269.911 198.262C268.205 193.125 266.158 188.331 264.452 183.195C264.11 182.168 263.769 180.798 263.428 179.086C266.84 180.798 266.84 180.798 267.864 182.853C269.57 185.934 270.935 189.359 272.3 192.44C276.736 201.686 281.854 210.246 284.925 220.519C285.608 219.149 285.949 218.464 286.631 217.779C290.044 214.013 291.75 209.561 293.115 205.11C293.797 202.371 295.162 199.289 293.456 196.207C292.432 194.495 291.409 193.125 290.044 191.413C287.996 188.674 285.949 186.277 283.902 183.537C282.537 181.483 281.172 179.086 281.854 176.689C285.949 181.483 290.385 185.934 294.138 190.728C298.574 195.522 302.328 200.316 302.328 206.822ZM237.836 48.2813C242.272 50.3358 244.319 46.2268 247.731 46.5692C247.049 47.254 246.708 47.9389 246.025 48.9661C252.509 48.9661 257.968 48.6237 263.087 44.8571C267.523 41.0905 271.617 37.3238 277.418 35.2693C280.148 34.2421 282.195 31.8451 281.854 28.0785C281.513 25.3391 282.195 24.9967 285.267 24.6543C288.338 24.6543 291.067 24.6543 294.138 24.6543C300.281 24.3119 305.74 22.5998 308.47 16.0938C308.811 15.0665 309.153 14.3817 309.494 13.6968C307.446 11.2999 305.399 8.90293 303.352 6.16357C300.281 6.16357 297.21 4.45147 293.797 2.73936C293.797 2.73936 293.456 3.08179 292.774 3.08179C293.115 3.76663 293.115 4.79389 293.797 6.16357C292.091 5.82115 290.726 5.82115 290.044 5.13631C288.679 4.10905 287.655 2.39694 286.29 1.02726C284.925 0.684841 284.243 0.342421 283.219 0C283.219 2.05452 282.878 4.10905 282.878 5.82115C280.489 6.16357 278.783 6.16357 277.76 3.76663C277.418 3.08179 276.736 2.05452 276.053 1.36968C275.371 0.342421 274.347 -0.342421 272.641 1.02726C272.982 2.39694 273.665 3.42421 273.665 4.79389C274.006 6.16357 274.006 7.87567 272.3 8.56051C270.935 9.24536 269.57 8.56051 268.546 7.53325C266.499 5.13631 264.11 2.73936 261.722 0.342421C260.016 0.342421 259.333 1.02726 259.333 2.39694C262.746 6.16357 265.817 9.58778 268.546 13.012C266.499 17.121 263.428 18.4907 259.333 16.4362C257.286 15.4089 255.238 14.0392 253.191 13.012C250.461 11.2999 247.731 8.90293 243.978 9.58778C247.39 14.0392 253.874 16.0938 252.509 23.2846C250.12 25.6815 248.073 23.9694 246.367 22.9422C243.637 21.5725 241.248 19.8604 238.518 18.4907C236.812 17.4634 235.447 18.1483 234.424 19.518C239.542 21.5725 239.542 21.5725 241.589 28.0785C240.566 28.0785 239.883 28.0785 239.201 27.7361C236.812 27.3936 234.424 26.3664 232.035 26.024C229.988 25.6815 227.599 24.6543 226.234 27.3936C228.964 29.4482 231.353 29.4482 234.424 28.0785C235.106 30.4754 238.86 30.133 238.86 33.5572C236.471 34.2421 233.741 35.2693 231.011 36.2966C231.694 36.9814 232.035 37.6663 232.376 37.6663C235.788 38.0087 238.86 38.0087 242.272 38.3511C242.954 38.3511 243.978 39.0359 244.66 39.7208C246.025 41.7753 245.343 43.4874 242.954 45.1995C241.248 45.8844 239.883 46.9116 237.836 48.2813ZM71.6579 313.657C71.6579 309.548 71.6579 305.439 71.6579 301.33C71.6579 294.482 73.7052 287.976 77.4587 282.155C81.2123 276.333 86.3307 272.224 91.4491 267.43C97.9324 261.609 104.416 255.446 110.558 249.625C111.24 248.94 111.582 247.912 112.264 246.885C110.558 246.543 109.534 245.858 108.169 245.858C103.392 245.516 98.6149 245.173 93.8377 246.2C86.6719 247.913 80.871 252.364 76.7763 257.843C69.6105 267.43 65.5158 278.388 64.8333 290.715C64.4921 299.618 68.2456 306.466 71.6579 313.657ZM302.328 42.4602C302.669 40.0632 303.01 38.3511 303.01 36.639C303.01 34.2421 303.01 31.8451 304.717 30.133C305.74 28.7633 305.74 27.3936 305.058 25.6815C304.375 25.6815 303.693 25.6815 303.352 26.024C299.939 28.4209 296.527 29.1058 292.432 27.7361C290.044 27.0512 285.608 29.1057 284.584 31.8451C283.219 35.2693 282.196 38.6935 283.219 42.4602C284.243 45.5419 284.584 48.9661 284.584 52.3903C284.584 53.0752 284.243 53.76 284.584 54.4449C285.267 56.157 285.608 58.2115 286.973 59.5812C287.655 60.266 289.361 60.266 290.726 60.266C292.774 60.266 294.48 60.9509 295.162 62.663C295.845 64.0326 296.527 66.0872 296.868 67.7993C297.551 70.5386 297.892 73.278 299.939 75.3325C301.304 76.7022 302.328 78.7567 303.693 80.1264C304.034 80.4688 304.717 80.4688 305.399 80.8113C305.74 79.784 306.081 78.7567 306.423 78.0719C308.47 73.6204 309.153 69.169 307.446 64.3751C306.423 61.6357 305.74 58.8963 305.74 55.8146C305.74 54.7873 305.058 53.76 304.375 53.0752C303.352 53.0752 302.328 53.0752 301.646 53.0752C297.892 53.76 295.162 52.7328 292.091 50.6782C289.703 49.3086 288.679 47.5965 289.361 44.5147C290.385 45.5419 291.75 45.8844 292.432 46.9116C293.115 48.2813 294.48 48.9661 295.845 49.651C298.916 51.0207 301.646 50.6782 304.717 49.651C307.105 48.6237 307.446 48.2813 307.446 44.8571C306.081 43.8298 304.034 43.145 302.328 42.4602ZM310.517 49.3086C308.47 51.0207 308.811 53.4176 309.153 55.4721C309.494 57.5267 310.176 59.5812 310.517 61.2933C312.224 67.7993 314.953 73.9628 320.754 78.4143C323.484 80.4688 326.214 81.1537 329.285 81.8385C330.991 82.1809 332.015 81.4961 332.356 79.784C332.697 78.0719 333.721 76.3598 333.721 74.6477C334.403 69.5114 333.721 64.3751 330.991 59.9236C328.261 55.8146 325.19 52.3903 321.095 49.3086C319.389 47.9389 317.683 47.9389 316.318 48.9661C314.271 50.3358 312.565 50.3358 310.517 49.3086ZM91.7903 274.964C91.4491 274.621 91.1079 274.621 90.7666 274.279C90.0842 274.964 89.0605 275.306 88.378 276.333C83.6008 281.127 79.8473 286.606 77.4587 293.112C75.0701 299.618 75.0701 306.124 79.1649 311.945C80.5298 314 82.5772 315.027 83.9421 314.342C85.9894 313.315 85.9894 311.603 85.9894 309.891C85.9894 309.548 85.9894 309.206 85.9894 309.206C85.6482 300.645 87.3543 292.085 89.7429 283.867C90.4254 280.442 91.1079 277.703 91.7903 274.964ZM325.531 15.4089C324.167 15.4089 323.143 15.0665 322.46 15.4089C319.389 16.4362 316.318 17.8059 313.247 19.1756C310.517 20.5452 308.129 21.9149 308.811 25.6815C309.153 27.0512 308.47 28.4209 307.788 29.7906C306.764 32.1875 306.081 34.9269 306.423 37.3238C306.423 38.6935 307.105 39.0359 308.47 38.6935C310.176 34.9269 311.882 31.1603 313.93 27.3936C315.295 24.3119 317.001 21.2301 319.731 19.1756C321.095 18.1483 323.143 17.121 325.531 15.4089ZM86.3307 335.572C87.3543 329.751 84.6245 324.272 84.6245 317.766C81.5535 321.533 80.5298 324.957 79.8473 328.724C79.5061 331.121 80.5298 333.175 82.2359 334.545C83.2596 335.572 84.6245 336.599 86.3307 335.572ZM15.3553 270.512C15.014 270.17 14.6728 270.512 14.6728 270.512C15.014 270.512 15.014 270.855 15.3553 270.512C15.3553 270.855 15.3553 270.855 15.3553 270.512ZM334.062 293.797C334.403 293.112 334.403 292.77 334.745 292.085C334.403 292.77 334.403 293.112 334.062 293.797ZM334.062 293.797C334.062 294.139 334.062 294.139 333.721 294.482L333.38 294.139C333.721 294.139 333.721 293.797 334.062 293.797ZM335.768 291.4C335.427 291.742 335.086 292.085 334.745 292.085C335.086 291.742 335.427 291.4 335.768 291.4ZM336.451 290.373C336.11 290.715 335.768 291.057 335.427 291.057C335.768 291.057 336.11 290.715 336.451 290.373ZM124.889 215.383C125.572 215.383 126.596 215.04 126.596 216.41C126.254 216.067 125.572 215.725 124.889 215.383ZM126.596 216.41C127.278 216.067 127.96 216.067 128.302 217.095C127.96 216.752 127.278 216.41 126.596 216.41ZM128.302 217.095C128.643 217.095 129.325 217.095 129.667 217.095V217.437C129.325 217.437 128.643 217.095 128.302 217.095ZM69.9517 244.831C69.9517 244.488 70.293 244.488 70.293 244.146C70.293 244.146 70.293 244.488 70.6342 244.488C70.293 244.831 69.9517 244.831 69.9517 244.831ZM298.916 29.7906C299.939 32.8724 302.328 35.2693 300.622 38.6935C299.257 41.4329 297.892 42.8026 295.162 42.8026C291.409 42.8026 289.703 41.7753 288.679 38.6935C287.314 34.9269 287.996 32.1875 290.726 31.1603C293.456 30.133 296.186 30.133 298.916 29.7906ZM293.456 33.5572C291.75 33.5572 290.385 35.2693 290.726 36.9814C291.067 38.6935 292.091 39.3784 294.138 39.3784C296.186 39.3784 296.868 38.3511 296.527 36.2966C296.186 34.9269 294.48 33.2148 293.456 33.5572Z" fill="#394B35"/>
</svg>